<svg width="140" height="140" viewBox="0 0 140 140" fill="none" xmlns="http://www.w3.org/2000/svg">
<path d="M70 0L27.2222 42.7778L42.7778 58.3333L70 31.1111L97.2222 58.3333L112.778 42.7778L70 0Z" fill="black"/>
<path d="M70 54.4444L54.4444 70L70 85.5556L85.5556 70L70 54.4444Z" fill="black"/>
<path d="M124.444 54.4444L108.889 70L124.444 85.5556L140 70L124.444 54.4444Z" fill="black"/>
<path d="M31.1111 70L15.5556 54.4444L0 70L15.5556 85.5556L31.1111 70Z" fill="black"/>
<path d="M27.2222 97.2222L42.7778 81.6667L70 108.889L97.2222 81.6667L112.778 97.2222L70 140L27.2222 97.2222Z" fill="black"/>
</svg>
