<svg width="133" height="116" viewBox="0 0 133 116" fill="none" xmlns="http://www.w3.org/2000/svg">
<path d="M116.48 83.3817L99.8068 100.801C99.4444 101.18 99.0058 101.482 98.5185 101.688C98.0312 101.894 97.5055 102 96.9743 102H17.9356C17.5585 102 17.1896 101.893 16.8742 101.691C16.5588 101.49 16.3107 101.203 16.1604 100.866C16.0101 100.529 15.9641 100.157 16.028 99.7945C16.092 99.4324 16.2631 99.0964 16.5204 98.8278L33.2061 81.408C33.5676 81.0306 34.0047 80.7295 34.4904 80.5234C34.9762 80.3172 35.5002 80.2104 36.0301 80.2095H115.064C115.441 80.2095 115.81 80.3169 116.126 80.5183C116.441 80.7198 116.689 81.0067 116.84 81.3436C116.99 81.6806 117.036 82.0529 116.972 82.415C116.908 82.7771 116.737 83.1131 116.48 83.3817ZM99.8068 48.3032C99.4444 47.9248 99.0058 47.6231 98.5185 47.4169C98.0312 47.2108 97.5055 47.1045 96.9743 47.1048H17.9356C17.5585 47.1048 17.1896 47.2121 16.8742 47.4136C16.5588 47.6151 16.3107 47.9019 16.1604 48.2388C16.0101 48.5758 15.9641 48.9482 16.028 49.3103C16.092 49.6723 16.2631 50.0083 16.5204 50.277L33.2061 67.6968C33.5676 68.0742 34.0047 68.3752 34.4904 68.5814C34.9762 68.7875 35.5002 68.8944 36.0301 68.8952H115.064C115.441 68.8952 115.81 68.7879 116.126 68.5864C116.441 68.3849 116.689 68.0981 116.84 67.7612C116.99 67.4242 117.036 67.0518 116.972 66.6897C116.908 66.3277 116.737 65.9917 116.48 65.723L99.8068 48.3032ZM17.9356 35.7905H96.9743C97.5055 35.7907 98.0312 35.6845 98.5185 35.4783C99.0058 35.2721 99.4444 34.9704 99.8068 34.592L116.48 17.1722C116.737 16.9036 116.908 16.5676 116.972 16.2055C117.036 15.8434 116.99 15.471 116.84 15.1341C116.689 14.7971 116.441 14.5103 116.126 14.3088C115.81 14.1073 115.441 14 115.064 14H36.0301C35.5002 14.0009 34.9762 14.1077 34.4904 14.3138C34.0047 14.52 33.5676 14.8211 33.2061 15.1985L16.5247 32.6183C16.2677 32.8866 16.0966 33.2223 16.0325 33.5839C15.9684 33.9456 16.0141 34.3177 16.1639 34.6545C16.3136 34.9913 16.5611 35.2781 16.8758 35.4799C17.1905 35.6817 17.5589 35.7896 17.9356 35.7905Z" fill="black"/>
</svg>
