<?xml version="1.0" encoding="utf-8"?>
<!-- Generator: Adobe Illustrator 24.1.2, SVG Export Plug-In . SVG Version: 6.00 Build 0)  -->
<svg version="1.1" id="Layer_1" xmlns="http://www.w3.org/2000/svg" xmlns:xlink="http://www.w3.org/1999/xlink" x="0px" y="0px"
	 viewBox="0 0 64 64" style="enable-background:new 0 0 64 64;" xml:space="preserve">
<style type="text/css">
	.st0{fill:#000000;}
</style>
<path class="st0" d="M62.3,30.5c0-3.8-10.4-7-24.2-7.7l0-6.1h17.2V4H8.2v12.7h17.2v6.1c-13.5,0.8-23.7,3.9-23.7,7.7
	c0,3.8,10.1,6.9,23.7,7.7V60h12.7V38.2C51.9,37.5,62.3,34.3,62.3,30.5z M32,34.2c-14.8,0-26.8-2.3-26.8-5.1c0-2.4,8.6-4.4,20.2-5
	v1.4h0v5.9c2.1,0.1,4.3,0.2,6.6,0.2c2.1,0,4.1-0.1,6.1-0.2v-7.4c11.9,0.5,20.7,2.6,20.7,5C58.8,31.9,46.8,34.2,32,34.2z"/>
</svg>
