<svg width="40" height="40" viewBox="0 0 40 40" fill="none" xmlns="http://www.w3.org/2000/svg">
<g clip-path="url(#clip0_327_14)">
<path d="M20 37C29.3888 37 37 29.3888 37 20C37 10.6112 29.3888 3 20 3C10.6112 3 3 10.6112 3 20C3 29.3888 10.6112 37 20 37Z" fill="url(#paint0_linear_327_14)"/>
<path d="M32.17 20.2071H29.1731C29.1731 14.0997 24.2048 9.14893 18.0756 9.14893C12.0223 9.14893 7.10092 13.9785 6.98047 19.9813C6.85586 26.1863 12.698 31.5745 18.9259 31.5745H19.7093C25.1999 31.5745 32.559 27.2916 33.7088 22.0732C33.9211 21.1113 33.1586 20.2071 32.17 20.2071ZM13.6221 20.4792C13.6221 21.2959 12.9517 21.9639 12.132 21.9639C11.3124 21.9639 10.6421 21.2956 10.6421 20.4792V18.0773C10.6421 17.2606 11.3124 16.5926 12.132 16.5926C12.9517 16.5926 13.6221 17.2606 13.6221 18.0773V20.4792ZM18.7959 20.4792C18.7959 21.2959 18.1256 21.9639 17.306 21.9639C16.4863 21.9639 15.816 21.2956 15.816 20.4792V18.0773C15.816 17.2606 16.4866 16.5926 17.306 16.5926C18.1256 16.5926 18.7959 17.2606 18.7959 18.0773V20.4792Z" fill="url(#paint1_linear_327_14)"/>
</g>
<defs>
<linearGradient id="paint0_linear_327_14" x1="20" y1="3" x2="20" y2="37" gradientUnits="userSpaceOnUse">
<stop stop-color="#534BB1"/>
<stop offset="1" stop-color="#551BF9"/>
</linearGradient>
<linearGradient id="paint1_linear_327_14" x1="20.3615" y1="9.14893" x2="20.3615" y2="31.5745" gradientUnits="userSpaceOnUse">
<stop stop-color="white"/>
<stop offset="1" stop-color="white" stop-opacity="0.82"/>
</linearGradient>
<clipPath id="clip0_327_14">
<rect width="40" height="40" fill="white"/>
</clipPath>
</defs>
</svg>
