<?xml version="1.0" encoding="UTF-8"?>
<svg class="" width="512" height="512" enable-background="new 0 0 512 512" version="1.1" viewBox="0 0 510 510" xml:space="preserve" xmlns="http://www.w3.org/2000/svg"><g xmlns="http://www.w3.org/2000/svg"><path class="" d="m360 0v150h150v-150zm120 120h-90v-90h90z" data-original="#000000"/><path class="" d="m420 60h30v30h-30z" data-original="#000000"/><path class="" d="m360 510h150v-150h-150zm30-120h90v90h-90z" data-original="#000000"/><path class="" d="m420 420h30v30h-30z" data-original="#000000"/><path class="" d="m0 510h150v-150h-150zm30-120h90v90h-90z" data-original="#000000"/><path class="" d="m60 420h30v30h-30z" data-original="#000000"/><path class="" d="m180 480h75v30h-75z" data-original="#000000"/><path class="" d="m180 420h45v30h-45z" data-original="#000000"/><path class="" d="m90 300h30v30h-30z" data-original="#000000"/><path class="" d="m60 300h-30v-60h-30v90h60z" data-original="#000000"/><path class="" d="m480 300h-30v30h60v-90h-30z" data-original="#000000"/><path class="" d="m360 300h60v30h-60z" data-original="#000000"/><path class="" d="m255 300h75v30h-75z" data-original="#000000"/><path class="" d="m285 480h45v30h-45z" data-original="#000000"/><path class="" d="m300 420h-45v30h75v-90h-30z" data-original="#000000"/><path class="" d="m180 390h75v-30h-45v-60h-59.999v30h29.999z" data-original="#000000"/><path class="" d="m285 60h45v30h-45z" data-original="#000000"/><path class="" d="m360 180h30v30h-30z" data-original="#000000"/><path class="" d="m360 240h30v30h-30z" data-original="#000000"/><path class="" d="m420 270h30v-60h60v-30h-90z" data-original="#000000"/><path class="" d="m255 150h45v120h30v-150h-75z" data-original="#000000"/><path class="" d="m120 270h135v-30h-105v-30h-30z" data-original="#000000"/><path class="" d="m60 270h30v-90h-90v30h60z" data-original="#000000"/><path class="" d="m120 120h30v60h-30z" data-original="#000000"/><path class="" d="m180 180h75v30h-75z" data-original="#000000"/><path class="" d="m210 90h45v-30h-75v90h30z" data-original="#000000"/><path class="" d="m255 0h75v30h-75z" data-original="#000000"/><path class="" d="m30 30h60v-30h-90v90h30z" data-original="#000000"/><path class="" d="m180 0h45v30h-45z" data-original="#000000"/><path class="" d="m60 90h90v-90h-30v60h-60z" data-original="#000000"/><path class="" d="m0 120h90v30h-90z" data-original="#000000"/></g></svg>
