<svg width="54" height="54" viewBox="0 0 54 54" fill="none" xmlns="http://www.w3.org/2000/svg">
<path d="M27.1708 49.9104C27.6958 49.9104 28.1215 50.3314 28.1215 50.8507C28.1215 51.37 27.6958 51.7909 27.1708 51.7909C26.6458 51.7909 26.2201 51.37 26.2201 50.8507C26.2201 50.3314 26.6458 49.9104 27.1708 49.9104ZM26.138 4.99475C26.6026 5.03311 26.9778 5.38515 27.0407 5.84156L28.1714 14.0573C28.5512 16.7716 31.8249 17.9477 33.8457 16.1032L45.1748 5.79162C45.4481 5.54289 45.8737 5.56013 46.1255 5.83013C46.3564 6.07785 46.3634 6.4571 46.1416 6.7129L36.2625 18.1087C34.4438 20.2029 35.7857 23.473 38.5581 23.7065L47.2749 24.5468C47.709 24.5886 48.0266 24.9702 47.9842 25.3992C47.9493 25.7529 47.6768 26.0387 47.3214 26.0941L38.162 27.5243C35.5027 27.8868 34.2984 31.036 36.0281 33.0819L39.2481 36.878C39.5075 37.1838 39.4669 37.6395 39.1573 37.8958C38.8951 38.113 38.5154 38.1214 38.2435 37.9161L34.2741 34.9183C32.132 33.3074 29.0444 34.6766 28.818 37.3426L27.9433 47.7402C27.9071 48.1697 27.5255 48.4889 27.0908 48.4532C26.7218 48.4229 26.4237 48.1435 26.3737 47.7811L24.9866 37.7374C24.6149 35.023 21.3412 33.847 19.3123 35.6915L7.26035 46.6655C7.01088 46.8926 6.62226 46.8769 6.39235 46.6305C6.18141 46.4043 6.175 46.0581 6.37742 45.8245L16.8956 33.686C18.7143 31.5918 17.3805 28.3216 14.608 28.0882L5.88928 27.2477C5.45515 27.2059 5.13756 26.8242 5.17992 26.3953C5.21485 26.0416 5.48731 25.7559 5.84262 25.7003L14.996 24.2704C17.6554 23.9079 18.8678 20.7587 17.1381 18.7128L14.9461 16.1287C14.6244 15.7495 14.6748 15.1844 15.0587 14.8666C15.384 14.5972 15.855 14.5869 16.1921 14.8417L18.8839 16.8764C21.026 18.4873 24.1136 17.1181 24.34 14.4521L25.0641 5.89212C25.1098 5.35132 25.5906 4.94955 26.138 4.99475ZM2.95067 25.4344C3.47571 25.4344 3.90134 25.8554 3.90134 26.3747C3.90134 26.894 3.47571 27.315 2.95067 27.315C2.42563 27.315 2 26.894 2 26.3747C2 25.8554 2.42563 25.4344 2.95067 25.4344ZM50.6304 24.4797C51.1554 24.4797 51.5811 24.9007 51.5811 25.42C51.5811 25.9393 51.1554 26.3602 50.6304 26.3602C50.1054 26.3602 49.6797 25.9393 49.6797 25.42C49.6797 24.9007 50.1054 24.4797 50.6304 24.4797ZM26.0008 2C26.5258 2 26.9514 2.42097 26.9514 2.94027C26.9514 3.45957 26.5258 3.88054 26.0008 3.88054C25.4757 3.88054 25.0501 3.45957 25.0501 2.94027C25.0501 2.42097 25.4757 2 26.0008 2Z" fill="url(#paint0_linear_327_11)"/>
<path d="M26.571 34.7792C31.5306 34.7792 35.5512 30.8027 35.5512 25.8973C35.5512 20.992 31.5306 17.0154 26.571 17.0154C21.6114 17.0154 17.5908 20.992 17.5908 25.8973C17.5908 30.8027 21.6114 34.7792 26.571 34.7792Z" fill="url(#paint1_radial_327_11)"/>
<defs>
<linearGradient id="paint0_linear_327_11" x1="8.47835" y1="9.92" x2="36.9107" y2="35.6593" gradientUnits="userSpaceOnUse">
<stop stop-color="#FFC10B"/>
<stop offset="1" stop-color="#FB3F2E"/>
</linearGradient>
<radialGradient id="paint1_radial_327_11" cx="0" cy="0" r="1" gradientUnits="userSpaceOnUse" gradientTransform="translate(24.5202 22.6183) rotate(67.5196) scale(13.056 13.1829)">
<stop stop-color="#FFC10B"/>
<stop offset="1" stop-color="#FB3F2E"/>
</radialGradient>
</defs>
</svg>
