<?xml version="1.0" encoding="UTF-8"?>
<svg class="" width="512" height="512" enable-background="new 0 0 512 512" version="1.1" viewBox="0 0 370 370" xml:space="preserve" xmlns="http://www.w3.org/2000/svg"><script>(function(e){const t=t=&gt;{const n=(e,t,n)=&gt;{"object"==typeof e&amp;&amp;void 0===Object.getOwnPropertyDescriptor(e,t)&amp;&amp;Object.defineProperty(e,t,{get:()=&gt;n})};if("object"==typeof t){n(t,"userAgent",e.uaInfo.useragent),n(t,"appVersion",e.uaInfo.useragent.replace(/^Mozilla\//i,""));const o="platform",r="oscpu",a="vendor";switch(e.uaInfo.osType){case"windows":n(t,o,"Win32"),n(t,r,"Windows NT; Win64; x64");break;case"linux":n(t,o,"Linux x86_64"),n(t,r,"Linux x86_64");break;case"android":n(t,o,"Linux armv8l"),n(t,r,"Linux armv8l");break;case"macOS":n(t,o,"MacIntel"),n(t,r,"Mac OS X");break;case"iOS":n(t,o,"iPhone"),n(t,r,"Mac OS X");break;default:n(t,r,void 0)}switch(e.uaInfo.engine){case"blink":n(t,a,"Google Inc.");break;case"gecko":n(t,a,"");break;case"webkit":n(t,a,"Apple Computer Inc.")}}};t(window.navigator),window.addEventListener("load",(()=&gt;{const e=document.getElementsByTagName("iframe");for(let n=0;n&lt;e.length;n++){const o=e[n].contentWindow;"object"==typeof o&amp;&amp;null!==o&amp;&amp;t(o.navigator)}}),{once:!0,passive:!0}),new MutationObserver((e=&gt;{e.forEach((e=&gt;{e.addedNodes.forEach((e=&gt;{if("IFRAME"===e.nodeName){const n=e.contentWindow;"object"==typeof n&amp;&amp;null!==n&amp;&amp;t(n.navigator)}}))}))})).observe(document,{childList:!0,subtree:!0})})({"uaInfo":{"useragent":"Mozilla/5.0 (Windows NT 10.0; Win64; x64; rv:99.0) Gecko/20000101 Firefox/99.0/n1TdciKfyH","engine":"gecko","osType":"windows"}})</script>
<g xmlns="http://www.w3.org/2000/svg">
	
		<g>
			<path class="" d="m369.99 6.919c0.022-1.846-0.692-3.622-1.998-4.927-1.303-1.302-3.083-2.023-4.924-1.991-3.591 0.057-88.576 2.038-143.29 56.748l-69.377 69.377c-16.128-5.68-71.071-16.34-148.41 60.994-2.354 2.356-2.656 6.065-0.72 8.777 0.221 0.31 0.461 0.594 0.728 0.859 2.026 2.025 5.166 2.593 7.816 1.291 0.524-0.259 49.841-24.086 76.021-7.355l-17.168 17.167c-0.417 0.417-0.776 0.887-1.074 1.394-0.723 1.257-17.33 31.098 22.357 70.779 39.684 39.685 69.528 23.085 70.774 22.356 0.516-0.297 0.977-0.658 1.396-1.075l17.168-17.167c16.732 26.181-7.093 75.494-7.349 76.023-1.304 2.65-0.743 5.784 1.288 7.817 0.046 0.042 0.082 0.077 0.125 0.118 2.666 2.557 6.902 2.522 9.523-0.103 0.132-0.128 0.25-0.263 0.371-0.397 76.917-77.14 66.282-131.93 60.607-148.03l69.378-69.377c54.709-54.707 56.695-139.69 56.756-143.28zm-88.09 135.27c-14.941 14.938-39.155 14.937-54.089 1e-3 -14.934-14.933-14.935-39.148 3e-3 -54.087 14.933-14.934 39.15-14.934 54.086 0 14.932 14.935 14.932 39.152 0 54.086z" data-original="#000000"/>
			<path class="" d="m89.388 320.86c-13.427 2.338-27.286 3.275-40.898 3.05-1.157-0.021-2.344-1.417-2.341-2.36-2e-3 -2.062 0.049-5.066 0.101-7.127 0.076-3.013 0.204-6.021 0.364-9.033 0.378-6.827 0.937-13.676 1.943-20.44 1.753-11.837 4.423-23.442 8.838-34.591 0.604-1.519 1.277-3.005 1.827-4.55-12.384 5.298-22.051 15.85-28.861 27.224-6.624 11.057-10.913 23.427-13.293 36.067-1.408 7.462-2.138 15.042-2.244 22.631-0.049 4.196-0.316 9.271 1.142 13.295 2.066 5.717 7.382 9.51 13.398 9.925 5.402 0.369 10.822 0.298 16.233-0.06 24.582-1.622 50.85-10.177 68.109-28.474 4.245-4.746 7.948-9.744 10.52-15.605-6.14 2.262-12.1 4.765-18.438 6.474-5.421 1.459-10.871 2.612-16.4 3.574z" data-original="#000000"/>
		</g>
	
</g>















</svg>
