<?xml version="1.0" standalone="no"?>
<!DOCTYPE svg PUBLIC "-//W3C//DTD SVG 20010904//EN"
 "http://www.w3.org/TR/2001/REC-SVG-20010904/DTD/svg10.dtd">
<svg version="1.0" xmlns="http://www.w3.org/2000/svg"
 width="286.000000pt" height="304.000000pt" viewBox="0 0 286.000000 304.000000"
 preserveAspectRatio="xMidYMid meet">

<g transform="translate(0.000000,304.000000) scale(0.100000,-0.100000)"
fill="#000000" stroke="none">
<path d="M390 2977 c-14 -7 -33 -28 -42 -47 -17 -33 -18 -122 -18 -1437 0
-849 4 -1411 9 -1426 6 -14 20 -35 32 -46 l23 -21 1079 0 c720 0 1085 3 1098
10 51 28 49 -20 49 1233 l0 1164 -30 44 c-16 24 -119 154 -227 289 l-198 245
-875 2 c-685 2 -880 0 -900 -10z m1882 -430 l177 -222 -2 -1055 -2 -1055 -967
-3 -968 -2 0 1280 0 1280 793 0 792 -1 177 -222z"/>
<path d="M886 2099 c-38 -45 -37 -110 3 -150 l29 -29 557 0 557 0 29 29 c23
23 29 38 29 71 0 44 -13 77 -39 97 -12 9 -152 12 -578 13 l-561 0 -26 -31z"/>
<path d="M886 1459 c-38 -45 -37 -110 3 -150 l29 -29 557 0 557 0 29 29 c40
40 41 105 3 150 l-26 31 -563 0 -563 0 -26 -31z"/>
<path d="M886 819 c-38 -45 -37 -110 3 -150 l29 -29 557 0 557 0 29 29 c23 23
29 38 29 71 0 44 -13 77 -39 97 -12 9 -152 12 -578 13 l-561 0 -26 -31z"/>
</g>
</svg>
